<svg width="113" height="102" viewBox="0 0 113 102" fill="none" xmlns="http://www.w3.org/2000/svg">
<g id="Group">
<g id="Group_2">
<path id="Vector" d="M107.125 52.2375C107.125 21.3563 83.1625 0.375 56.5 0.375C30.1187 0.375 5.875 20.9062 5.875 52.575C2.5 54.4875 0.25 58.0875 0.25 62.25V73.5C0.25 79.6875 5.3125 84.75 11.5 84.75C14.5938 84.75 17.125 82.2188 17.125 79.125V52.0687C17.125 30.525 33.7188 11.6813 55.2625 11.0625C77.5375 10.3875 95.875 28.275 95.875 50.4375V90.375H56.5C53.4062 90.375 50.875 92.9062 50.875 96C50.875 99.0938 53.4062 101.625 56.5 101.625H95.875C102.062 101.625 107.125 96.5625 107.125 90.375V83.5125C110.444 81.7688 112.75 78.3375 112.75 74.2875V61.35C112.75 57.4125 110.444 53.9813 107.125 52.2375Z" fill="#DDF9E5"/>
<path id="Vector_2" d="M39.625 62.25C42.7316 62.25 45.25 59.7316 45.25 56.625C45.25 53.5184 42.7316 51 39.625 51C36.5184 51 34 53.5184 34 56.625C34 59.7316 36.5184 62.25 39.625 62.25Z" fill="#DDF9E5"/>
<path id="Vector_3" d="M73.375 62.25C76.4816 62.25 79 59.7316 79 56.625C79 53.5184 76.4816 51 73.375 51C70.2684 51 67.75 53.5184 67.75 56.625C67.75 59.7316 70.2684 62.25 73.375 62.25Z" fill="#DDF9E5"/>
<path id="Vector_4" d="M90.2509 45.5437C87.5509 29.5125 73.6009 17.25 56.7821 17.25C39.7384 17.25 21.4009 31.3687 22.8634 53.5312C36.7571 47.85 47.2196 35.475 50.2009 20.4C57.5696 35.1938 72.7009 45.375 90.2509 45.5437Z" fill="#DDF9E5"/>
</g>
</g>
</svg>
