<svg width="62" height="32" viewBox="0 0 62 32" fill="none" xmlns="http://www.w3.org/2000/svg">
<path d="M14.8443 29.7143C6.55867 29.7143 1.16992 24.3516 1.16992 16C1.16992 7.67765 6.55867 2.28571 14.782 2.28571C20.4822 2.28571 24.7807 4.65933 26.2447 8.0879C26.4939 8.64468 26.6185 9.17215 26.6185 9.75823C26.6185 11.3993 25.4037 12.3956 23.4725 12.3956C21.697 12.3956 20.9183 11.7216 20.2642 10.7839C19.2362 8.87911 17.5542 7.73625 15 7.73625C11.1998 7.73625 8.73909 11.0476 8.73909 16C8.73909 21.011 11.231 24.4396 15.0623 24.4396C18.4887 24.4396 20.3887 22.6813 20.3887 20.1612V19.0476H16.9935C15.3738 19.0476 14.4393 18.1392 14.4393 16.8498C14.4393 15.5018 15.3426 14.6227 16.9935 14.6227H24.002C26.2447 14.6227 27.4907 15.7949 27.4907 17.9341V19.2234C27.4907 25.2601 22.6315 29.7143 14.8443 29.7143Z" fill="#FD384E"/>
<path d="M46.6667 30.8572C37.2667 30.8572 31 24.9404 31 16.0522C31 7.16394 37.2397 1.14288 46.4507 1.14288C55.3645 1.14288 61.4151 6.61657 61.4151 14.6707C61.4151 20.1444 58.4438 23.8717 53.9869 23.8717C51.826 23.8717 50.1512 22.9594 49.476 21.5519C48.5305 23.0898 46.9909 23.8978 45.046 23.8717C41.0483 23.8717 38.3202 20.6918 38.3202 16.0782C38.3202 11.595 40.9943 8.46719 44.857 8.46719C46.5857 8.46719 48.1254 9.22308 48.9897 10.4481V10.1875C48.9897 9.27521 49.8271 8.46719 51.0426 8.46719C52.4202 8.46719 53.3116 9.32734 53.3116 10.6567V18.5283C53.3116 19.6231 53.7708 20.1444 54.7162 20.1444C56.2018 20.1444 57.4174 18.1113 57.4174 14.7228C57.4174 8.83211 52.9605 4.8702 46.4507 4.8702C39.6437 4.8702 35.0788 9.40554 35.0788 16.1304C35.0788 22.9073 39.7248 27.1299 47.1259 27.1299C48.2604 27.1299 49.0978 26.9735 50.2593 26.7649C50.7185 26.7128 51.3127 26.6607 51.6909 26.6607C52.7984 26.6607 53.5547 27.3644 53.5547 28.3549C53.5547 29.2933 52.9875 29.9188 51.961 30.2577C50.6915 30.7008 48.7196 30.8572 46.6667 30.8572ZM46.0185 19.9098C47.7472 19.9098 48.8277 18.4762 48.8277 16.0782C48.8277 13.7063 47.7202 12.2988 46.0185 12.2988C44.3437 12.2988 43.2633 13.7324 43.2633 16.1043C43.2633 18.5023 44.3167 19.9098 46.0185 19.9098Z" fill="#FD384E"/>
</svg>
