<svg width="62" height="32" viewBox="0 0 62 32" fill="none" xmlns="http://www.w3.org/2000/svg">
<path d="M14.8443 29.7147C6.55867 29.7147 1.16992 24.3521 1.16992 16.0004C1.16992 7.67807 6.55867 2.28613 14.782 2.28613C20.4822 2.28613 24.7807 4.65976 26.2447 8.08833C26.4939 8.64511 26.6185 9.17258 26.6185 9.75866C26.6185 11.3997 25.4037 12.396 23.4725 12.396C21.697 12.396 20.9183 11.722 20.2642 10.7843C19.2362 8.87954 17.5542 7.73668 15 7.73668C11.1998 7.73668 8.73909 11.048 8.73909 16.0004C8.73909 21.0114 11.231 24.44 15.0623 24.44C18.4887 24.44 20.3887 22.6817 20.3887 20.1616V19.048H16.9935C15.3738 19.048 14.4393 18.1396 14.4393 16.8502C14.4393 15.5022 15.3426 14.6231 16.9935 14.6231H24.002C26.2447 14.6231 27.4907 15.7953 27.4907 17.9345V19.2239C27.4907 25.2605 22.6315 29.7147 14.8443 29.7147Z" fill="black"/>
<path d="M46.6667 30.8569C37.2667 30.8569 31 24.9401 31 16.0519C31 7.16363 37.2397 1.14258 46.4507 1.14258C55.3645 1.14258 61.4151 6.61626 61.4151 14.6704C61.4151 20.1441 58.4438 23.8714 53.9869 23.8714C51.826 23.8714 50.1512 22.9591 49.476 21.5516C48.5305 23.0894 46.9909 23.8975 45.046 23.8714C41.0483 23.8714 38.3202 20.6915 38.3202 16.0779C38.3202 11.5947 40.9943 8.46689 44.857 8.46689C46.5857 8.46689 48.1254 9.22278 48.9897 10.4478V10.1872C48.9897 9.27491 49.8271 8.46689 51.0426 8.46689C52.4202 8.46689 53.3116 9.32704 53.3116 10.6564V18.528C53.3116 19.6228 53.7708 20.1441 54.7162 20.1441C56.2018 20.1441 57.4174 18.111 57.4174 14.7225C57.4174 8.8318 52.9605 4.8699 46.4507 4.8699C39.6437 4.8699 35.0788 9.40524 35.0788 16.13C35.0788 22.907 39.7248 27.1295 47.1259 27.1295C48.2604 27.1295 49.0978 26.9732 50.2593 26.7646C50.7185 26.7125 51.3127 26.6604 51.6909 26.6604C52.7984 26.6604 53.5547 27.3641 53.5547 28.3546C53.5547 29.293 52.9875 29.9185 51.961 30.2574C50.6915 30.7005 48.7196 30.8569 46.6667 30.8569ZM46.0185 19.9095C47.7472 19.9095 48.8277 18.4759 48.8277 16.0779C48.8277 13.706 47.7202 12.2985 46.0185 12.2985C44.3437 12.2985 43.2633 13.7321 43.2633 16.104C43.2633 18.502 44.3167 19.9095 46.0185 19.9095Z" fill="black"/>
</svg>
