<svg width="20" height="21" viewBox="0 0 20 21" fill="none" xmlns="http://www.w3.org/2000/svg">
<path d="M10 20.9102C8.63932 20.9102 7.35677 20.6497 6.15234 20.1289C4.95443 19.6081 3.89648 18.8887 2.97852 17.9707C2.06055 17.0527 1.34115 15.9948 0.820312 14.7969C0.299479 13.5924 0.0390625 12.3099 0.0390625 10.9492C0.0390625 9.58854 0.299479 8.30924 0.820312 7.11133C1.34115 5.9069 2.05729 4.8457 2.96875 3.92773C3.88672 3.00977 4.94466 2.29036 6.14258 1.76953C7.34701 1.2487 8.62956 0.988281 9.99023 0.988281C11.3509 0.988281 12.6335 1.2487 13.8379 1.76953C15.0423 2.29036 16.1035 3.00977 17.0215 3.92773C17.9395 4.8457 18.6589 5.9069 19.1797 7.11133C19.7005 8.30924 19.9609 9.58854 19.9609 10.9492C19.9609 12.3099 19.7005 13.5924 19.1797 14.7969C18.6589 15.9948 17.9395 17.0527 17.0215 17.9707C16.1035 18.8887 15.0423 19.6081 13.8379 20.1289C12.64 20.6497 11.3607 20.9102 10 20.9102ZM10 19.25C11.1523 19.25 12.2298 19.0352 13.2324 18.6055C14.235 18.1758 15.1172 17.5833 15.8789 16.8281C16.6406 16.0664 17.2331 15.1842 17.6562 14.1816C18.0859 13.179 18.3008 12.1016 18.3008 10.9492C18.3008 9.79688 18.0859 8.7194 17.6562 7.7168C17.2266 6.71419 16.6309 5.83203 15.8691 5.07031C15.1139 4.30859 14.2318 3.71615 13.2227 3.29297C12.2201 2.86328 11.1426 2.64844 9.99023 2.64844C8.83789 2.64844 7.76042 2.86328 6.75781 3.29297C5.75521 3.71615 4.8763 4.30859 4.12109 5.07031C3.36589 5.83203 2.77344 6.71419 2.34375 7.7168C1.92057 8.7194 1.70898 9.79688 1.70898 10.9492C1.70898 12.1016 1.92057 13.179 2.34375 14.1816C2.77344 15.1842 3.36589 16.0664 4.12109 16.8281C4.88281 17.5833 5.76497 18.1758 6.76758 18.6055C7.77018 19.0352 8.84766 19.25 10 19.25ZM10.0098 15.8223C9.79492 15.8223 9.61914 15.7539 9.48242 15.6172C9.3457 15.4805 9.27734 15.3047 9.27734 15.0898V10.207L9.3457 8.14648L8.36914 9.31836L7.20703 10.4902C7.0638 10.6335 6.89128 10.7051 6.68945 10.7051C6.48763 10.7051 6.31836 10.64 6.18164 10.5098C6.05143 10.373 5.98633 10.2038 5.98633 10.002C5.98633 9.79362 6.05143 9.62435 6.18164 9.49414L9.44336 6.25195C9.62565 6.06315 9.81445 5.96875 10.0098 5.96875C10.2051 5.96875 10.3939 6.06315 10.5762 6.25195L13.8379 9.49414C13.9681 9.63086 14.0332 9.80013 14.0332 10.002C14.0332 10.2038 13.9648 10.373 13.8281 10.5098C13.6914 10.64 13.5221 10.7051 13.3203 10.7051C13.1055 10.7051 12.9329 10.6335 12.8027 10.4902L11.6504 9.31836L10.6641 8.13672L10.7324 10.207V15.0898C10.7324 15.3047 10.6641 15.4805 10.5273 15.6172C10.3906 15.7539 10.2181 15.8223 10.0098 15.8223Z" fill="#1C1C1C"/>
</svg>
