<svg width="24" height="24" viewBox="0 0 24 24" fill="none" xmlns="http://www.w3.org/2000/svg">
<g id="uil:blogger">
<path id="Vector" d="M9.71116 10.46H11.9502C12.1546 10.46 12.3508 10.3787 12.4953 10.2341C12.6399 10.0895 12.7212 9.89344 12.7212 9.68895C12.7212 9.48447 12.6399 9.28836 12.4953 9.14377C12.3508 8.99918 12.1546 8.91795 11.9502 8.91795H9.71116C9.50668 8.91795 9.31058 8.99918 9.16598 9.14377C9.02139 9.28836 8.94016 9.48447 8.94016 9.68895C8.94016 9.89344 9.02139 10.0895 9.16598 10.2341C9.31058 10.3787 9.50668 10.46 9.71116 10.46ZM19.4292 2.00195H4.55616C3.87722 2.00459 3.22685 2.27546 2.74676 2.75555C2.26667 3.23563 1.9958 3.88601 1.99316 4.56495V19.438C1.99553 20.1171 2.26629 20.7677 2.74641 21.248C3.22652 21.7283 3.87705 21.9993 4.55616 22.002H19.4292C20.1084 21.9996 20.7592 21.7287 21.2396 21.2484C21.7199 20.768 21.9908 20.1172 21.9932 19.438V4.56495C21.9905 3.88584 21.7195 3.23531 21.2392 2.7552C20.7589 2.27508 20.1083 2.00432 19.4292 2.00195ZM18.3572 11.68L18.3372 14.355C18.3295 15.4221 17.9011 16.4431 17.1451 17.1961C16.389 17.9492 15.3663 18.3736 14.2992 18.377H9.65916C8.59091 18.3746 7.56686 17.9503 6.80999 17.1964C6.05313 16.4426 5.62476 15.4202 5.61816 14.352V9.65695C5.62423 8.58792 6.05241 7.56458 6.80946 6.80978C7.56651 6.05497 8.59112 5.62984 9.66016 5.62695H12.4832C13.1336 5.73988 13.7509 5.9958 14.2905 6.37625C14.83 6.7567 15.2784 7.25219 15.6032 7.82695C15.8257 8.24937 15.9495 8.71677 15.9652 9.19395C16.0332 9.69995 16.0682 10.075 16.2952 10.284C16.6152 10.573 17.8032 10.378 18.0382 10.562L18.2162 10.702L18.3262 10.923L18.3612 11.101L18.3572 11.68ZM14.2602 13.543H9.71116C9.51225 13.543 9.32149 13.622 9.18083 13.7626C9.04018 13.9033 8.96116 14.094 8.96116 14.293C8.96116 14.4919 9.04018 14.6826 9.18083 14.8233C9.32149 14.9639 9.51225 15.043 9.71116 15.043H14.2602C14.4591 15.043 14.6498 14.9639 14.7905 14.8233C14.9311 14.6826 15.0102 14.4919 15.0102 14.293C15.0102 14.094 14.9311 13.9033 14.7905 13.7626C14.6498 13.622 14.4591 13.543 14.2602 13.543Z" fill="#777777"/>
</g>
</svg>
