<svg width="20" height="20" viewBox="0 0 20 20" fill="none" xmlns="http://www.w3.org/2000/svg">
<path d="M11.0286 0.000986255C11.7583 -0.00181397 12.488 0.00552015 13.2176 0.0229863L13.4116 0.0299863C13.6356 0.0379863 13.8566 0.0479863 14.1236 0.0599863C15.1876 0.109986 15.9136 0.277986 16.5506 0.524986C17.2106 0.778986 17.7666 1.12299 18.3226 1.67899C18.831 2.17859 19.2244 2.78293 19.4756 3.44999C19.7226 4.08699 19.8906 4.81399 19.9406 5.87799C19.9526 6.14399 19.9626 6.36599 19.9706 6.58999L19.9766 6.78399C19.9943 7.51318 20.002 8.24258 19.9996 8.97199L20.0006 9.71799V11.028C20.003 11.7577 19.9954 12.4875 19.9776 13.217L19.9716 13.411C19.9636 13.635 19.9536 13.856 19.9416 14.123C19.8916 15.187 19.7216 15.913 19.4756 16.55C19.2252 17.2177 18.8317 17.8226 18.3226 18.322C17.8225 18.8303 17.2179 19.2237 16.5506 19.475C15.9136 19.722 15.1876 19.89 14.1236 19.94C13.8566 19.952 13.6356 19.962 13.4116 19.97L13.2176 19.976C12.4881 19.9938 11.7583 20.0014 11.0286 19.999L10.2826 20H8.97358C8.24384 20.0025 7.5141 19.9948 6.78458 19.977L6.59058 19.971C6.35319 19.9624 6.11585 19.9524 5.87858 19.941C4.81458 19.891 4.08858 19.721 3.45058 19.475C2.78326 19.2243 2.17881 18.8308 1.67958 18.322C1.17062 17.8223 0.776801 17.2175 0.525577 16.55C0.278577 15.913 0.110577 15.187 0.0605769 14.123C0.0494399 13.8857 0.0394398 13.6484 0.030577 13.411L0.0255771 13.217C0.00714068 12.4875 -0.00119355 11.7577 0.000577001 11.028V8.97199C-0.00221397 8.24259 0.00512015 7.51318 0.0225771 6.78399L0.029577 6.58999C0.037577 6.36599 0.047577 6.14399 0.059577 5.87799C0.109577 4.81299 0.277577 4.08799 0.524577 3.44999C0.77595 2.78261 1.17054 2.17843 1.68058 1.67999C2.17947 1.17074 2.78354 0.776559 3.45058 0.524986C4.08858 0.277986 4.81358 0.109986 5.87858 0.0599863L6.59058 0.0299863L6.78458 0.0249864C7.51376 0.00655924 8.24316 -0.00177499 8.97258 -1.36727e-05L11.0286 0.000986255ZM10.0006 5.00099C9.33808 4.99162 8.68033 5.11401 8.06555 5.36105C7.45077 5.6081 6.89122 5.97486 6.41942 6.44004C5.94762 6.90522 5.57298 7.45952 5.31726 8.07075C5.06155 8.68197 4.92987 9.33793 4.92987 10.0005C4.92987 10.663 5.06155 11.319 5.31726 11.9302C5.57298 12.5414 5.94762 13.0958 6.41942 13.5609C6.89122 14.0261 7.45077 14.3929 8.06555 14.6399C8.68033 14.887 9.33808 15.0094 10.0006 15C11.3267 15 12.5984 14.4732 13.5361 13.5355C14.4738 12.5978 15.0006 11.3261 15.0006 9.99999C15.0006 8.6739 14.4738 7.40213 13.5361 6.46445C12.5984 5.52677 11.3267 5.00099 10.0006 5.00099ZM10.0006 7.00099C10.3991 6.99364 10.7951 7.06578 11.1654 7.21319C11.5357 7.3606 11.8729 7.58033 12.1574 7.85953C12.4418 8.13873 12.6678 8.47182 12.822 8.83933C12.9763 9.20684 13.0558 9.6014 13.0558 9.99998C13.0559 10.3986 12.9766 10.7931 12.8224 11.1607C12.6683 11.5283 12.4424 11.8614 12.1581 12.1407C11.8737 12.42 11.5366 12.6399 11.1663 12.7874C10.796 12.9349 10.4001 13.0072 10.0016 13C9.20593 13 8.44287 12.6839 7.88026 12.1213C7.31765 11.5587 7.00158 10.7956 7.00158 9.99999C7.00158 9.20434 7.31765 8.44127 7.88026 7.87867C8.44287 7.31606 9.20593 6.99999 10.0016 6.99999L10.0006 7.00099ZM15.2506 3.50099C14.928 3.5139 14.6229 3.65114 14.3992 3.88396C14.1755 4.11678 14.0506 4.42712 14.0506 4.74999C14.0506 5.07285 14.1755 5.38319 14.3992 5.61601C14.6229 5.84884 14.928 5.98607 15.2506 5.99899C15.5821 5.99899 15.9 5.86729 16.1345 5.63287C16.3689 5.39845 16.5006 5.08051 16.5006 4.74899C16.5006 4.41747 16.3689 4.09952 16.1345 3.8651C15.9 3.63068 15.5821 3.49899 15.2506 3.49899V3.50099Z" fill="#777777"/>
</svg>
