<svg width="24" height="24" viewBox="0 0 24 24" fill="none" xmlns="http://www.w3.org/2000/svg">
<g clip-path="url(#clip0_56342_56044)">
<path d="M1.53434 14.0326H6.08149C6.08149 17.0326 4.98137 19.6087 1.77532 21.2935L1 20.1957C3.24214 19 4.43655 17.413 4.68801 15.1957H1.53434V14.0326ZM10 16.8261V18.0109H8.64843V23H7.26542V13H8.64843V16.8261H10Z" fill="#8E8E93"/>
<path d="M10.8312 4.54891H17.9045C17.9045 9.04891 16.1932 12.913 11.2061 15.4402L10 13.7935C13.4878 12 15.3458 9.61957 15.7369 6.29348H10.8312V4.54891ZM24 8.73913V10.5163H21.8976V18H19.7462V3H21.8976V8.73913H24Z" fill="#8E8E93"/>
</g>
<defs>
<clipPath id="clip0_56342_56044">
<rect width="24" height="24" fill="white"/>
</clipPath>
</defs>
</svg>
