<svg width="176" height="215" viewBox="0 0 176 215" fill="none" xmlns="http://www.w3.org/2000/svg">
<g clip-path="url(#clip0_56570_16982)">
<path d="M88.0007 82.2663C96.5073 82.2663 103.401 89.1597 103.401 97.6663C103.401 106.173 96.5073 113.066 88.0007 113.066C79.494 113.066 72.6006 106.173 72.6006 97.6663C72.6006 89.1597 79.494 82.2663 88.0007 82.2663ZM88.0007 148.266C109.781 148.266 132.734 158.973 132.734 163.666V171.733H43.2673V163.666C43.2673 158.973 66.2207 148.266 88.0007 148.266ZM88.0007 68.333C71.794 68.333 58.6673 81.4597 58.6673 97.6663C58.6673 113.873 71.794 127 88.0007 127C104.207 127 117.334 113.873 117.334 97.6663C117.334 81.4597 104.207 68.333 88.0007 68.333ZM88.0007 134.333C68.4207 134.333 29.334 144.16 29.334 163.666V178.333C29.334 182.366 32.634 185.666 36.6673 185.666H139.334C143.367 185.666 146.667 182.366 146.667 178.333V163.666C146.667 144.16 107.581 134.333 88.0007 134.333Z" fill="#323232"/>
</g>
<g clip-path="url(#clip1_56570_16982)">
<path d="M119.084 17.5771C117.345 15.8376 114.531 15.8376 112.792 17.5771L84.6248 45.7157L75.4195 36.5104C73.68 34.7709 70.8665 34.7709 69.1269 36.5104C67.3874 38.25 67.3874 41.0635 69.1269 42.803L81.4928 55.1688C83.2323 56.9084 86.0458 56.9084 87.7853 55.1688L119.084 23.8697C120.824 22.1301 120.824 19.3166 119.084 17.5771Z" fill="#323232" stroke="#323232" stroke-width="3"/>
</g>
<defs>
<clipPath id="clip0_56570_16982">
<rect width="176" height="176" fill="white" transform="translate(0 39)"/>
</clipPath>
<clipPath id="clip1_56570_16982">
<rect width="71" height="71" fill="white" transform="translate(58)"/>
</clipPath>
</defs>
</svg>
