<svg width="23" height="21" viewBox="0 0 23 21" fill="none" xmlns="http://www.w3.org/2000/svg">
<path d="M6.96094 4.05469C6.65625 4.11719 6.36719 3.91406 6.29688 3.61719L5.86719 1.61719C5.79688 1.32031 6.00781 1.02344 6.30469 0.960938C6.60156 0.898438 6.89844 1.08594 6.96094 1.39062L7.39844 3.39062C7.46094 3.67969 7.25781 3.98438 6.96094 4.05469ZM4.05469 4.85156L2.60156 3.40625C2.375 3.17188 2.38281 2.83594 2.60156 2.61719C2.82031 2.39844 3.15625 2.39062 3.38281 2.61719L4.83594 4.07031C5.05469 4.28906 5.04688 4.63281 4.83594 4.85156C4.625 5.07812 4.27344 5.07812 4.05469 4.85156ZM10.5312 4.50781C11.2031 3.85156 12.0781 3.83594 12.7578 4.51562L14.6406 6.39062C15.1484 6.00781 15.8047 5.98438 16.3359 6.32812C16.6094 5.76562 17.2266 5.57812 17.5859 5.57812C18.2656 5.57031 18.8281 6 19.1641 6.69531L20.8516 10.2578C22.1797 13.0625 21.8516 15.4844 19.8906 17.4531C18.7734 18.5703 17.4766 19.1406 16.1719 19.1484C14.0859 20.2188 11.6953 19.7891 9.67969 17.7734L5.07812 13.1719C4.42188 12.5156 4.39844 11.6172 5.02344 11C5.21094 10.8047 5.45312 10.6875 5.69531 10.6797L5.24219 10.2266C4.60938 9.59375 4.60156 8.73438 5.22656 8.11719C5.39844 7.94531 5.61719 7.82812 5.85156 7.8125C5.46875 7.17969 5.53125 6.46875 6.05469 5.9375C6.60156 5.39844 7.29688 5.33594 7.9375 5.74219C7.96875 5.49219 8.08594 5.25 8.28125 5.0625C8.86719 4.46875 9.64062 4.39844 10.2734 4.86719C10.3359 4.73438 10.4219 4.60938 10.5312 4.50781ZM14.4688 9.02344C14.4922 9.04688 14.5234 9.05469 14.5469 9.03125C14.5625 9.00781 14.5625 8.98438 14.5547 8.96094L14.1797 8.0625C14.1328 7.92969 14.0938 7.80469 14.0781 7.67188L11.9453 5.53906C11.7422 5.32812 11.4609 5.32031 11.2656 5.51562C11.2109 5.57031 11.1719 5.63281 11.1484 5.70312L14.4688 9.02344ZM3.28906 7.40625L1.26562 6.98438C0.976562 6.92188 0.789062 6.64844 0.828125 6.35938C0.875 6.03906 1.17188 5.82812 1.5 5.89844L3.50781 6.32812C3.8125 6.39062 3.99219 6.67969 3.9375 6.97656C3.88281 7.28125 3.57812 7.46875 3.28906 7.40625ZM16.7969 17.0391C18.3359 15.5078 18.7266 13.7344 17.6016 11.3047L15.8984 7.64062C15.75 7.34375 15.5391 7.24219 15.3047 7.35156C15.0938 7.44531 14.9844 7.67969 15.0938 7.96094L16.0234 10.3984C16.1797 10.8047 16.0859 11.1094 15.8672 11.3281C15.6094 11.5859 15.2266 11.6172 14.9141 11.2969L9.67969 6.07031C9.49219 5.88281 9.23438 5.875 9.05469 6.0625C8.86719 6.24219 8.875 6.5 9.0625 6.6875L12.7578 10.3828C12.9844 10.6094 12.9688 10.9766 12.7422 11.2031C12.5156 11.4219 12.1562 11.4297 11.9297 11.2031L7.57031 6.84375C7.38281 6.65625 7.11719 6.65625 6.9375 6.83594C6.75781 7.01562 6.76562 7.28125 6.95312 7.46875L11.3906 11.9141C11.625 12.1484 11.6094 12.5078 11.3828 12.7344C11.1641 12.9531 10.8047 12.9688 10.5703 12.7344L6.78906 8.96094C6.60156 8.77344 6.33594 8.77344 6.15625 8.95312C5.97656 9.14062 5.98438 9.39062 6.17188 9.57812L10.2266 13.6328C10.4609 13.8672 10.4375 14.2266 10.2109 14.4531C9.99219 14.6719 9.63281 14.6875 9.39844 14.4531L6.70312 11.7578C6.51562 11.5703 6.25 11.5703 6.0625 11.75C5.88281 11.9375 5.89062 12.1875 6.07812 12.375L10.4844 16.7812C12.5781 18.875 14.9219 18.9219 16.7969 17.0391ZM18.7344 10.7656C19.7734 12.9609 19.8047 14.9219 18.8203 16.6172C18.8516 16.5859 18.8828 16.5547 18.9141 16.5312C20.4531 15 20.8438 13.2188 19.7109 10.7969L18.0391 7.20312C17.9453 7.00781 17.7734 6.89062 17.5938 6.89062C17.3203 6.89062 17.1562 7.08594 17.1562 7.29688C17.1562 7.36719 17.1641 7.42969 17.1875 7.48438L18.7344 10.7656Z" fill="#4F4546"/>
</svg>
