<svg width="16" height="16" viewBox="0 0 16 16" fill="none" xmlns="http://www.w3.org/2000/svg">
<g id="Icons/person_assignment_24px" clip-path="url(#clip0_56330_11487)">
<path id="Vector" d="M12.6667 2.00033H9.88C9.6 1.22699 8.86667 0.666992 8 0.666992C7.13333 0.666992 6.4 1.22699 6.12 2.00033H3.33333C2.6 2.00033 2 2.60033 2 3.33366V12.667C2 13.4003 2.6 14.0003 3.33333 14.0003H12.6667C13.4 14.0003 14 13.4003 14 12.667V3.33366C14 2.60033 13.4 2.00033 12.6667 2.00033ZM8 2.00033C8.36667 2.00033 8.66667 2.30033 8.66667 2.66699C8.66667 3.03366 8.36667 3.33366 8 3.33366C7.63333 3.33366 7.33333 3.03366 7.33333 2.66699C7.33333 2.30033 7.63333 2.00033 8 2.00033ZM6.19333 10.8603L4.46667 9.13366C4.20667 8.87366 4.20667 8.45366 4.46667 8.19366C4.72667 7.93366 5.14667 7.93366 5.40667 8.19366L6.66667 9.44699L10.5867 5.52699C10.8467 5.26699 11.2667 5.26699 11.5267 5.52699C11.7867 5.78699 11.7867 6.20699 11.5267 6.46699L7.13333 10.8603C6.88 11.1203 6.45333 11.1203 6.19333 10.8603Z" fill="#FF9500"/>
</g>
<defs>
<clipPath id="clip0_56330_11487">
<rect width="16" height="16" fill="white"/>
</clipPath>
</defs>
</svg>
